<svg width="51" height="51" viewBox="0 0 51 51" fill="none" xmlns="http://www.w3.org/2000/svg">
<rect x="1.1665" y="1" width="49" height="49" rx="24.5" fill="#1A8281"/>
<rect x="1.1665" y="1" width="49" height="49" rx="24.5" stroke="#1A8281"/>
<path fill-rule="evenodd" clip-rule="evenodd" d="M22.2409 18.6835C21.9936 18.8053 21.8765 19.092 21.9373 19.4266C21.9615 19.5595 22.2811 19.8926 24.9202 22.5346L27.876 25.4937L24.9389 28.4331C23.301 30.0724 21.9838 31.421 21.9609 31.4824C21.8125 31.8801 22.0392 32.3057 22.427 32.3578C22.8161 32.4099 22.5937 32.6069 26.0896 29.1145C27.8567 27.3493 29.3288 25.8494 29.3611 25.7813C29.4295 25.6372 29.4375 25.3895 29.3788 25.2324C29.3267 25.0924 22.9986 18.756 22.8322 18.677C22.6717 18.6009 22.4025 18.6038 22.2409 18.6835Z" fill="white"/>
</svg>
