<svg width="28" height="27" viewBox="0 0 28 27" fill="none" xmlns="http://www.w3.org/2000/svg">
<path fill-rule="evenodd" clip-rule="evenodd" d="M0.961138 15.1953C1.17163 16.6894 1.55116 17.9246 2.21288 19.2696C2.94564 20.7588 3.6726 21.7629 4.84816 22.9092C5.89499 23.93 6.83261 24.601 8.09808 25.2351C9.53499 25.955 10.99 26.3849 12.626 26.573C13.4798 26.6711 15.3315 26.6138 16.1805 26.463C18.8878 25.9821 21.1934 24.8108 23.1238 22.9355C24.3211 21.7724 25.0478 20.7723 25.7872 19.2696C26.7136 17.3869 27.125 15.6128 27.125 13.5C27.125 10.9797 26.465 8.66472 25.1321 6.50998C24.47 5.43963 23.3125 4.13479 22.2852 3.30064C20.5118 1.86083 18.3397 0.894555 15.9961 0.502885C15.0608 0.346588 12.8005 0.360479 11.8628 0.528314C10.4874 0.774408 9.47117 1.1057 8.23047 1.71241C6.916 2.35515 5.91801 3.05482 4.87425 4.06545C2.84293 6.03217 1.5434 8.49306 1.03278 11.3399C0.877302 12.2066 0.838037 14.3215 0.961138 15.1953ZM7.99083 12.1328C8.05575 12.2967 13.2927 17.5584 13.5518 17.7201C13.7943 17.8715 14.2057 17.8715 14.4482 17.7201C14.5476 17.6581 15.8387 16.394 17.3173 14.9111C19.6379 12.5838 20.0152 12.183 20.0741 11.9824C20.2606 11.3471 19.6528 10.7393 19.0176 10.926C18.8178 10.9848 18.4497 11.329 16.3926 13.3805L14 15.7667L11.6348 13.4063C10.3339 12.1081 9.20025 11.0198 9.11559 10.9878C8.70915 10.8344 8.25054 10.9783 8.03879 11.3257C7.92094 11.519 7.89836 11.8995 7.99083 12.1328Z" fill="#1A8281"/>
</svg>
