<svg width="12" height="20" viewBox="0 0 12 20" fill="none" xmlns="http://www.w3.org/2000/svg">
<path fill-rule="evenodd" clip-rule="evenodd" d="M6.39035 0.0595463C5.47547 0.255523 4.80176 0.637007 4.15465 1.32548C3.6823 1.82798 3.38469 2.36451 3.17875 3.08486C3.09961 3.36169 3.09422 3.47841 3.08039 5.204L3.06578 7.03017L2.10113 7.03033C1.20742 7.03045 1.12707 7.03619 1.00914 7.1081C0.939101 7.1508 0.846914 7.24298 0.804219 7.31302C0.729492 7.43552 0.726562 7.51326 0.726562 9.37392C0.726562 11.2346 0.729492 11.3123 0.804219 11.4348C0.846914 11.5049 0.939101 11.597 1.00914 11.6397C1.12711 11.7117 1.20742 11.7174 2.10324 11.7175L3.07004 11.7177L3.0702 15.6532C3.07031 19.5114 3.07187 19.5913 3.14797 19.7161C3.19066 19.7861 3.28285 19.8783 3.35289 19.921C3.47539 19.9957 3.55312 19.9986 5.41379 19.9986C7.27445 19.9986 7.35219 19.9957 7.47469 19.921C7.54473 19.8783 7.63691 19.7861 7.67961 19.7161C7.7557 19.5913 7.75727 19.5114 7.75738 15.6532L7.75754 11.7177H9.02129C10.2677 11.7177 10.2868 11.7165 10.4157 11.6297C10.4875 11.5812 10.5772 11.4887 10.615 11.4241C10.6893 11.2968 11.2733 7.91013 11.273 7.60791C11.2729 7.40498 11.1652 7.21474 10.9903 7.1081C10.8689 7.03408 10.7907 7.03045 9.31027 7.03033L7.75754 7.03017V5.8583V4.68642L9.31027 4.68626C10.7907 4.68615 10.8689 4.68251 10.9903 4.60849C11.0604 4.5658 11.1525 4.47361 11.1952 4.40357C11.27 4.28107 11.2729 4.20334 11.2729 2.34267C11.2729 0.482007 11.27 0.404273 11.1952 0.281773C11.1525 0.211734 11.0604 0.119546 10.9903 0.076851C10.8673 0.00181197 10.7925 -0.00068803 8.75363 0.00216353C7.10762 0.00446822 6.58848 0.0170854 6.39035 0.0595463ZM6.77352 1.21439C6.44383 1.25685 5.95391 1.43439 5.63797 1.62584C5.10957 1.94607 4.62367 2.55736 4.41879 3.15978C4.26406 3.61466 4.24191 3.96189 4.24176 5.93541C4.24164 7.719 4.23855 7.79689 4.16398 7.9192C4.12129 7.98923 4.0291 8.08142 3.95906 8.12412C3.84109 8.19607 3.76078 8.20177 2.86496 8.20189L1.89816 8.20205V9.37392V10.5458L2.86496 10.546C3.76078 10.5461 3.84109 10.5518 3.95906 10.6237C4.0291 10.6664 4.12129 10.7586 4.16398 10.8286C4.24008 10.9535 4.24164 11.0333 4.24176 14.8915L4.24191 18.827H5.41379H6.58566L6.58582 14.8915C6.58594 11.0333 6.5875 10.9535 6.66359 10.8286C6.70629 10.7586 6.79848 10.6664 6.86852 10.6237C6.98879 10.5504 7.06754 10.5461 8.29465 10.546C9.00902 10.5459 9.59348 10.5358 9.59348 10.5237C9.59348 10.4878 9.94351 8.38603 9.96551 8.28994L9.98559 8.20205L8.4907 8.20189C7.06793 8.20177 6.98969 8.19802 6.86852 8.12412C6.79848 8.08142 6.70629 7.98923 6.66359 7.9192C6.58887 7.7967 6.58594 7.71896 6.58594 5.8583C6.58594 3.99763 6.58887 3.9199 6.66359 3.7974C6.70629 3.72736 6.79848 3.63517 6.86852 3.59248C6.98988 3.51845 7.06809 3.51482 8.54855 3.5147L10.1013 3.51455V2.34267V1.1708L8.56809 1.17572C7.72484 1.17845 6.91726 1.19584 6.77352 1.21439Z" fill="#1A8281"/>
</svg>
