<svg width="18" height="19" viewBox="0 0 18 19" fill="none" xmlns="http://www.w3.org/2000/svg">
<path d="M8.99999 0.232422C4.04999 0.232422 0 4.28965 0 9.28664C0 13.8047 3.294 17.5547 7.59599 18.2324V11.9071H5.30999V9.28664H7.59599V7.28965C7.59599 5.02158 8.93699 3.77459 10.998 3.77459C11.979 3.77459 13.005 3.94628 13.005 3.94628V6.17821H11.871C10.755 6.17821 10.404 6.87399 10.404 7.58784V9.28664H12.906L12.501 11.9071H10.404V18.2324C12.5248 17.8961 14.456 16.8097 15.8489 15.1692C17.2419 13.5288 18.0048 11.4423 18 9.28664C18 4.28965 13.95 0.232422 8.99999 0.232422Z" fill="white"/>
</svg>
