<svg width="18" height="16" viewBox="0 0 18 16" fill="none" xmlns="http://www.w3.org/2000/svg">
<path fill-rule="evenodd" clip-rule="evenodd" d="M4.93199 0.584524C4.85375 0.629876 4.75266 0.732923 4.70738 0.813548C4.62805 0.954642 4.625 1.0096 4.625 2.29265V3.62523H9.00141H13.3779L13.3666 2.24827C13.3541 0.704798 13.3635 0.75515 13.0572 0.581009C12.9162 0.500814 12.8869 0.500228 8.99469 0.501126C5.07691 0.502025 5.0741 0.502063 4.93199 0.584524ZM2.20312 4.3239C1.85926 4.43507 1.65555 4.55718 1.41844 4.79429C1.18102 5.03171 1.03895 5.27429 0.937969 5.61476C0.882617 5.80124 0.875 6.16581 0.875 8.6282C0.875 11.3362 0.877656 11.4381 0.95457 11.6871C1.11473 12.2057 1.55758 12.6813 2.07328 12.8886C2.29113 12.9762 2.34996 12.9806 3.46289 12.9923L4.625 13.0045V11.1173C4.625 9.99746 4.64062 9.17574 4.6634 9.09624C4.71418 8.91921 4.91969 8.71199 5.09203 8.66413C5.28004 8.61191 12.72 8.61191 12.908 8.66413C13.0803 8.71199 13.2858 8.91921 13.3366 9.09624C13.3594 9.17574 13.375 9.99746 13.375 11.1173V13.0045L14.5371 12.9923C15.65 12.9806 15.7089 12.9762 15.9267 12.8886C16.4424 12.6813 16.8853 12.2057 17.0454 11.6871C17.1223 11.4381 17.125 11.3362 17.125 8.62523C17.125 5.93827 17.1218 5.81046 17.0475 5.56988C16.9022 5.09964 16.5556 4.67402 16.1484 4.46597C15.6997 4.23663 16.1493 4.25003 8.98312 4.25234C2.80086 4.25429 2.40543 4.25847 2.20312 4.3239ZM13.8425 6.16206C13.5666 6.24566 13.4065 6.45781 13.4021 6.7457C13.3916 7.44792 14.3943 7.58437 14.5837 6.90648C14.6534 6.65714 14.5075 6.32718 14.2734 6.20515C14.1741 6.15331 13.9465 6.13058 13.8425 6.16206ZM5.88395 12.5022C5.89426 15.0595 5.8966 15.1319 5.97266 15.2339C6.01562 15.2916 6.11531 15.3754 6.19422 15.4202C6.33637 15.501 6.36184 15.5017 9.04578 15.4912L11.7539 15.4807L11.8794 15.3866C12.1342 15.1953 12.125 15.3051 12.125 12.4572V9.87523H8.99918H5.8734L5.88395 12.5022ZM7.56699 11.1683C7.2784 11.2518 7.0827 11.6043 7.1618 11.8981C7.21031 12.0782 7.41484 12.2848 7.59602 12.3368C7.67148 12.3585 8.28453 12.3752 9 12.3752C9.71547 12.3752 10.3285 12.3585 10.404 12.3368C10.7116 12.2486 10.9182 11.8993 10.8382 11.6024C10.7897 11.4223 10.5852 11.2156 10.404 11.1636C10.2347 11.1151 7.73668 11.1192 7.56699 11.1683ZM7.56699 13.0433C7.2784 13.1268 7.0827 13.4793 7.1618 13.7731C7.21031 13.9532 7.41484 14.1598 7.59602 14.2118C7.67148 14.2335 8.28453 14.2502 9 14.2502C9.71547 14.2502 10.3285 14.2335 10.404 14.2118C10.7116 14.1236 10.9182 13.7743 10.8382 13.4774C10.7897 13.2973 10.5852 13.0906 10.404 13.0386C10.2347 12.9901 7.73668 12.9942 7.56699 13.0433Z" fill="#1A8281"/>
</svg>
