<svg width="20" height="24" viewBox="0 0 20 24" fill="none" xmlns="http://www.w3.org/2000/svg">
<path fill-rule="evenodd" clip-rule="evenodd" d="M8.85191 0.0514303C7.53012 0.239212 6.2307 0.698774 5.18534 1.34813C3.98637 2.09288 2.90567 3.17359 2.16092 4.37256C1.69175 5.12781 1.2478 6.19759 1.04778 7.05474C0.732968 8.40399 0.731374 10.0049 1.04361 11.3149C1.27395 12.2815 1.76806 13.4246 2.3023 14.2266C2.45684 14.4586 4.15311 16.7473 6.0718 19.3126L9.56023 23.9766H10.001H10.4418L13.8788 19.3829C15.7691 16.8563 17.4725 14.5566 17.664 14.2724C18.235 13.4251 18.7168 12.3232 18.9571 11.3149C19.2779 9.96873 19.2679 8.32988 18.9307 6.98443C18.2581 4.3006 16.4307 2.05806 13.9613 0.886321C13.1131 0.483852 12.2079 0.211274 11.26 0.0728053C10.7203 -0.00599155 9.34227 -0.0182259 8.85191 0.0514303ZM9.60191 6.18521C8.61162 6.3444 7.77505 6.92757 7.34258 7.76026C7.08341 8.25934 6.98881 8.6409 6.98881 9.18756C6.98881 10.018 7.2852 10.7365 7.86828 11.3196C8.45136 11.9027 9.16991 12.1991 10.0003 12.1991C10.8308 12.1991 11.5493 11.9027 12.1324 11.3196C12.7155 10.7365 13.0119 10.018 13.0119 9.18756C13.0119 8.35712 12.7155 7.63857 12.1324 7.05549C11.4753 6.39835 10.4562 6.04787 9.60191 6.18521Z" fill="#1A8281"/>
</svg>
