<svg width="24" height="24" viewBox="0 0 24 24" fill="none" xmlns="http://www.w3.org/2000/svg">
<path fill-rule="evenodd" clip-rule="evenodd" d="M1.38319 0.0651304C0.849847 0.235896 0.40655 0.621959 0.16955 1.12207C0.0309873 1.41452 0.0229717 1.46318 0.00703421 2.10935C-0.0524033 4.51938 0.537003 7.55299 1.55986 10.1015C3.81985 15.7325 8.26786 20.1805 13.8988 22.4405C16.4474 23.4634 19.481 24.0528 21.891 23.9933C22.5372 23.9774 22.5858 23.9694 22.8783 23.8308C23.2784 23.6412 23.6416 23.278 23.8312 22.8779L23.9769 22.5703V19.875V17.1797L23.8312 16.8721C23.7455 16.6913 23.585 16.4641 23.4419 16.3209C23.003 15.882 22.6579 15.7635 21.7035 15.7237C20.4267 15.6705 19.3912 15.5063 18.2348 15.1736C17.4214 14.9395 16.9436 14.9155 16.5004 15.0862C16.2014 15.2014 16.3272 15.113 14.6216 16.4062C13.8906 16.9605 13.2673 17.4298 13.2366 17.4491C13.1708 17.4905 12.3012 17.0004 11.5551 16.5014C9.90539 15.3983 8.5268 14.0184 7.47924 12.4219C6.98846 11.6739 6.51202 10.8258 6.54849 10.7651C6.61069 10.6616 8.45597 8.22555 8.59406 8.06468C8.84817 7.76861 9.00853 7.35166 9.03286 6.92388C9.05264 6.57654 9.03582 6.4728 8.86022 5.85935C8.50491 4.61801 8.36592 3.76933 8.29599 2.41404C8.27119 1.93343 8.223 1.47546 8.18405 1.34997C8.02514 0.83824 7.62966 0.402255 7.09866 0.153584L6.82069 0.0234116L4.19569 0.0142241C2.17003 0.00719287 1.52789 0.018771 1.38319 0.0651304Z" fill="#1A8281"/>
</svg>
