<svg width="24" height="18" viewBox="0 0 24 18" fill="none" xmlns="http://www.w3.org/2000/svg">
<path fill-rule="evenodd" clip-rule="evenodd" d="M1.99252 0.890604C1.93843 0.913521 1.78396 1.04537 1.64926 1.18361L1.40436 1.435L6.17362 6.20623C11.5884 11.6232 11.2106 11.2934 12.0002 11.2934C12.7898 11.2934 12.4119 11.6233 17.8275 6.20554L22.5974 1.43367L22.3144 1.15066L22.0314 0.867687L12.0611 0.858343C6.57751 0.85318 2.04662 0.867687 1.99252 0.890604ZM0.355986 2.47949C0.212927 2.62437 0.0765083 2.81606 0.0495097 2.91029C-0.0164376 3.14029 -0.016536 15.6549 0.0494114 15.8923C0.0778853 15.9947 0.203534 16.17 0.357363 16.3219L0.617218 16.5786L4.20626 12.9893L7.79535 9.39993L4.20459 5.80917L0.613824 2.2184L0.355986 2.47949ZM19.7942 5.81074L16.2051 9.40003L19.7942 12.9893L23.3832 16.5786L23.643 16.3219C23.7969 16.17 23.9225 15.9947 23.951 15.8923C24.0163 15.657 24.0163 3.14304 23.951 2.90773C23.9225 2.80534 23.7969 2.63002 23.643 2.47811L23.3832 2.2215L19.7942 5.81074ZM4.99069 13.7785L1.40303 17.3664L1.68605 17.6494L1.96902 17.9324H12.0002H22.0314L22.3143 17.6494L22.5974 17.3664L19.0097 13.7785L15.422 10.1906L14.5594 11.0386C13.6335 11.9489 13.3223 12.1654 12.7107 12.3247C12.3408 12.4211 11.6596 12.4211 11.2897 12.3247C10.6781 12.1654 10.3669 11.9489 9.44099 11.0386L8.57836 10.1906L4.99069 13.7785Z" fill="#1A8281"/>
</svg>
