<svg width="20" height="18" viewBox="0 0 20 18" fill="none" xmlns="http://www.w3.org/2000/svg">
<path fill-rule="evenodd" clip-rule="evenodd" d="M4.37212 0.0727832C2.6457 0.435736 1.35487 1.75434 1.03389 3.48276C0.984391 3.74939 0.979258 4.37387 0.98766 9.12534L0.997117 14.4681L1.09021 14.8047C1.52323 16.3704 2.61047 17.4577 4.17616 17.8906L4.51274 17.9837L9.80376 17.9943C13.5939 18.0018 15.1736 17.9936 15.3727 17.9652C16.2369 17.8419 17.1007 17.4115 17.7342 16.7884C18.3406 16.192 18.8434 15.2158 18.9319 14.4633C18.9441 14.3596 18.9677 14.2747 18.9844 14.2747C19.0012 14.2747 19.0144 11.9133 19.0142 8.95737C19.0139 6.03282 19.0004 3.6609 18.9841 3.68646C18.9652 3.71638 18.9467 3.66484 18.9322 3.5419C18.8703 3.01487 18.5224 2.18497 18.1629 1.70639C17.5206 0.851459 16.6255 0.28685 15.5721 0.0721855C15.2323 0.00292771 15.1047 0.00138083 9.95644 0.00377146C4.92885 0.00616208 4.67407 0.00929099 4.37212 0.0727832ZM4.84887 1.44525C3.69005 1.59786 2.79023 2.39953 2.48268 3.55336L2.40337 3.85092V9.00131V14.1517L2.48184 14.4505C2.74772 15.4631 3.51775 16.2331 4.53032 16.499L4.82915 16.5775H9.97954H15.1299L15.4288 16.499C16.4413 16.2331 17.2114 15.4631 17.4772 14.4505L17.5557 14.1517V9.00131V3.85092L17.477 3.55209C17.2107 2.54149 16.4638 1.78837 15.4463 1.50445L15.1651 1.42598L10.1202 1.42071C7.34546 1.41783 4.97336 1.42887 4.84887 1.44525ZM14.56 3.23871C14.3878 3.32396 14.1776 3.54404 14.107 3.71304C14.0325 3.89146 14.0438 4.23961 14.13 4.41767C14.2137 4.5904 14.4347 4.80256 14.6053 4.87386C14.7837 4.94839 15.1319 4.937 15.31 4.85083C15.4827 4.7672 15.6949 4.54613 15.7662 4.37552C15.8407 4.1971 15.8293 3.84895 15.7431 3.67088C15.6595 3.49816 15.4384 3.28599 15.2678 3.2147C15.0879 3.13953 14.7363 3.15145 14.56 3.23871ZM0.99666 9.00131C0.99666 11.9307 1.00081 13.1291 1.00591 11.6644C1.01097 10.1997 1.01097 7.80294 1.00591 6.33822C1.00081 4.87355 0.99666 6.07192 0.99666 9.00131ZM9.57524 4.45318C8.71184 4.54708 8.03104 4.78555 7.37003 5.22556C6.364 5.89533 5.7 6.95596 5.47957 8.24524C5.13529 10.2592 6.12522 12.2002 7.95693 13.1028C8.62803 13.4335 9.22403 13.5716 9.97954 13.5716C10.7532 13.5716 11.3521 13.429 12.0441 13.0798C12.948 12.6237 13.6356 11.9298 14.0813 11.0239C14.5197 10.133 14.6485 9.23376 14.4795 8.24524C14.3572 7.52985 14.1348 6.96183 13.7513 6.38586C13.1069 5.4179 12.0296 4.72722 10.8407 4.51984C10.5138 4.46278 9.82193 4.42636 9.57524 4.45318ZM9.62798 5.87209C9.25307 5.91878 8.96261 6.00709 8.59087 6.1874C7.96772 6.48968 7.46791 6.98949 7.16563 7.61264C6.88878 8.1834 6.79062 8.71173 6.85475 9.28604C6.98366 10.4406 7.60069 11.3473 8.57329 11.8112C9.07384 12.05 9.34796 12.1078 9.97954 12.1078C10.4286 12.1078 10.574 12.0944 10.8057 12.0316C11.1796 11.9302 11.7387 11.6489 12.0076 11.4266C12.9048 10.6851 13.3184 9.3636 13.0209 8.18899C12.9334 7.8434 12.6498 7.29307 12.4165 7.0159C11.7197 6.18818 10.6415 5.74591 9.62798 5.87209Z" fill="#1A8281"/>
</svg>
