<svg width="16" height="18" viewBox="0 0 16 18" fill="none" xmlns="http://www.w3.org/2000/svg">
<path fill-rule="evenodd" clip-rule="evenodd" d="M6.94529 0.31053C5.81205 0.486624 4.6844 0.961389 3.73732 1.66123C3.33607 1.95772 2.62354 2.66744 2.33061 3.06237C1.63455 4.00084 1.17139 5.09643 0.984747 6.24596C0.891231 6.82198 0.890957 7.77784 0.984121 8.35057C1.39846 10.8977 3.16088 13.704 6.09436 16.4878C6.78373 17.142 7.22975 17.5193 7.45311 17.6373C7.60248 17.7162 7.68463 17.7301 7.99998 17.7301C8.44658 17.7301 8.5635 17.6792 9.03514 17.2797C10.2648 16.238 11.6381 14.7802 12.6094 13.4854C14.4042 11.0928 15.2651 8.7394 15.072 6.75377C14.9517 5.51748 14.5861 4.44705 13.954 3.48119C12.8943 1.86162 11.3213 0.784319 9.42846 0.381663C9.02838 0.296546 8.83283 0.279202 8.1367 0.267132C7.54463 0.256858 7.21314 0.268929 6.94529 0.31053ZM7.52197 4.46721C6.46596 4.66037 5.58557 5.42303 5.24318 6.44127C5.09221 6.89022 5.06818 7.51674 5.18342 7.99842C5.46748 9.18584 6.44791 10.0592 7.66686 10.2107C9.10404 10.3893 10.4749 9.42643 10.8165 7.99842C10.8846 7.71412 10.896 7.57186 10.8806 7.20299C10.848 6.42194 10.5842 5.83217 10.0154 5.2685C9.66795 4.92412 9.28791 4.69873 8.80076 4.54811C8.49377 4.45319 7.82865 4.41112 7.52197 4.46721Z" fill="#1A8281"/>
</svg>
