<?xml version="1.0" encoding="UTF-8"?>
<svg id="Layer_1" xmlns="http://www.w3.org/2000/svg" version="1.1" viewBox="0 0 131.92 48.14">
  <!-- Generator: Adobe Illustrator 29.4.0, SVG Export Plug-In . SVG Version: 2.1.0 Build 152)  -->
  <g>
    <g>
      <g>
        <path d="M90.82,10.1c6.5-.49,10.92,3.4,10.57,10.03-.21,3.93-2.17,7.28-6.07,8.43-4.9,1.44-10.57-.18-12.22-5.38-1.94-6.11.87-12.56,7.72-13.07ZM91.41,13.52c-4.32.42-5.6,5.25-4.32,8.82,1.45,4.07,7.97,4.2,9.63.29s-.26-9.61-5.3-9.12Z"/>
        <g>
          <path d="M68.67,2.96v8.96l.89-.79c2.52-2.07,7.39-1.46,9.56.85.77.82,1.75,2.73,1.75,3.85v12.75h-4.29v-11.76c0-.24-.34-1.06-.47-1.3-1.7-3.04-6.3-2.53-7.26.83-.04.16-.18.62-.18.74v11.36h-4.22V2.96h4.22Z"/>
          <path d="M53.28,10.03c2.96-.22,6.25.55,7.99,3.12l-2.61,2.06c-.86-.79-1.77-1.38-2.91-1.69-1.37-.37-4.46-.46-4.73,1.43-.13.91.43,1.48,1.18,1.86,3.25,1.65,10.28,1,10.6,5.95.44,6.72-10.05,7.94-14.08,4.51-.32-.27-1.44-1.45-1.48-1.82-.02-.18,2.51-2.01,2.79-2.32.67,1,1.58,1.94,2.75,2.32,1.59.52,5.24.66,5.89-1.34.51-1.58-.87-2.3-2.14-2.67-3.42-.97-8.8-.89-9.48-5.35-.58-3.79,2.92-5.81,6.23-6.06Z"/>
        </g>
      </g>
      <g>
        <path d="M131.73,21.01h-14.18c.34,3.93,4.58,5.35,7.93,4,1.15-.46,2.18-1.51,2.92-2.49l2.66,2.14c-1.4,2.13-3.66,3.72-6.19,4.22-1.57.31-3.63.23-5.18-.17-8.58-2.22-8.42-15.93-.09-18.39,3.93-1.16,8.5-.05,10.83,3.45,1.42,2.14,1.65,4.74,1.29,7.24ZM127.5,18.11c.04-3.46-3.38-5.54-6.55-4.4-1.8.65-3.2,2.46-3.28,4.4h9.83Z"/>
        <path d="M113.85,10.01v4.08c-2.16-.35-5.16.09-6.19,2.28-.45.95-.48,2.06-.6,3.09l-.07,9.12h-4.29l.07-18.11h4.29v1.58c1.77-1.95,4.26-2.36,6.79-2.04Z"/>
      </g>
    </g>
    <g>
      <path d="M23.35,34.05h-12.66c-.07-.11-.25-.07-.36-.07-5.57-.06-9.29-1.19-10.12-7.29l-.21-2.07c.21-5.18-.28-10.58,0-15.74.03-.56.12-1.22.21-1.8C.98,1.77,4.15.27,9.2.06c5.44.26,11.22-.37,16.62.07,6.31.51,7.87,3.47,8.14,9.39.22,4.63.23,9.91.07,14.56-.17,4.89-1.13,8.67-6.52,9.63-1.34.24-2.82.31-4.17.35ZM10.61,1.6c-2.42.08-5.8.15-7.5,2.12-1.42,1.65-1.59,4.49-1.65,6.58-.14,4.24-.09,8.88.07,13.11.09,2.5.12,5.8,2.21,7.54,1.59,1.33,3.82,1.41,5.8,1.59,5.38-.32,11.3.47,16.62-.14s6.12-3.19,6.31-8c-.29-5.37.45-11.22-.13-16.53-.62-5.66-3.6-6.03-8.61-6.22-4.26-.16-8.84-.18-13.1-.05Z"/>
      <path d="M17.88,15.35l2.71-2.14c5.06-3.22,10.26,3.33,5.57,7.4-2.74,2.38-5.88,4.47-8.65,6.84-.45.45-1.28.02-1.28-.55v-8.27c-1.68,1.11-3.07,2.88-5.24,2.96-4.23.15-6.41-5.2-3.27-8,2.78-2.48,6.09-4.66,8.95-7.07.47-.34,1.21.07,1.21.62v8.2ZM16.29,8.83l-7.59,6.02c-2.5,2.74.92,6.65,3.98,4.64l3.61-2.92v-7.74ZM17.88,25.1l7.45-5.83c2.84-2.63-.52-7.05-3.74-4.92l-3.71,3.01v7.74Z"/>
    </g>
  </g>
  <g>
    <path d="M4.69,40.26h1.63v5.08c0,1.85-1.14,2.8-3.13,2.8-1.85,0-3.01-.87-3.01-2.71v-5.17h1.62v5.03c0,.94.5,1.54,1.37,1.54,1.02,0,1.53-.48,1.53-1.48v-5.08ZM1.43,39.26v-1.42h1.49v1.42h-1.49ZM3.72,39.26v-1.42h1.49v1.42h-1.49Z"/>
    <path d="M6.93,47.88v-7.71h1.47v2.8c.42-.6.98-.88,1.68-.88,1.46,0,2.32,1.21,2.32,2.92,0,1.9-1.02,3.03-2.44,3.03-.69,0-1.22-.26-1.57-.84v.69h-1.45ZM10.88,45.1c0-1.16-.41-1.74-1.29-1.74-.83,0-1.25.61-1.25,1.84,0,.95.55,1.62,1.26,1.62s1.27-.7,1.27-1.71Z"/>
    <path d="M14.31,45.44c.05.85.53,1.4,1.26,1.4.48,0,.91-.24,1.01-.63h1.54c-.34,1.16-1.27,1.81-2.48,1.81-1.88,0-2.82-1.03-2.82-3.08,0-1.74,1-2.87,2.73-2.87s2.65,1.12,2.65,3.36h-3.89ZM16.66,44.5c-.02-.84-.57-1.24-1.16-1.24s-1.09.46-1.15,1.24h2.31Z"/>
    <path d="M18.71,47.88v-5.65h1.4v.68c.49-.76,1.07-.83,1.68-.83h.19v1.53c-.14-.02-.28-.03-.41-.03-.92,0-1.37.46-1.37,1.37v2.94h-1.49Z"/>
    <path d="M27.87,47.88v-1.66h-2.96v-1.3l2.78-4.66h1.68v4.8h.86v1.16h-.86v1.66h-1.49ZM27.9,42.37l-1.56,2.69h1.56v-2.69Z"/>
    <path d="M30.52,44.03c0-2.86.95-4.03,2.59-4.03s2.64,1.17,2.64,4-1,4.13-2.64,4.13-2.59-1.24-2.59-4.11ZM34.24,44.08c0-2.11-.36-2.88-1.08-2.88s-1.09.76-1.09,2.86.37,2.88,1.09,2.88,1.08-.78,1.08-2.86Z"/>
    <path d="M36.14,44.03c0-2.86.95-4.03,2.59-4.03s2.64,1.17,2.64,4-1,4.13-2.64,4.13-2.59-1.24-2.59-4.11ZM39.86,44.08c0-2.11-.36-2.88-1.08-2.88s-1.09.76-1.09,2.86.37,2.88,1.09,2.88,1.08-.78,1.08-2.86Z"/>
    <path d="M44.43,47.88v-1.15l2.88-3.32h-2.69v-1.18h4.59v1.21l-2.88,3.22h2.96v1.22h-4.87Z"/>
    <path d="M53.4,47.88v-.79c-.39.64-.98.94-1.76.94-1.12,0-1.92-.84-1.92-2.08v-3.72h1.49v3.49c0,.71.32,1.06.95,1.06.76,0,1.16-.54,1.16-1.29v-3.26h1.48v5.65h-1.41Z"/>
    <path d="M56.05,47.88v-4.59h-.84v-1.06h.84c0-1.38.79-2.07,2.4-2.07v1.21c-.76,0-.93.21-.93.86h.96v1.06h-.96v4.59h-1.47Z"/>
    <path d="M58.85,47.88v-5.65h1.4v.68c.49-.76,1.07-.83,1.68-.83h.2v1.53c-.14-.02-.28-.03-.41-.03-.92,0-1.37.46-1.37,1.37v2.94h-1.49Z"/>
    <path d="M62.57,41.55v-1.39h1.49v1.39h-1.49ZM62.57,47.88v-5.65h1.49v5.65h-1.49Z"/>
    <path d="M66.1,45.44c.05.85.53,1.4,1.26,1.4.48,0,.91-.24,1.01-.63h1.54c-.34,1.16-1.27,1.81-2.48,1.81-1.88,0-2.82-1.03-2.82-3.08,0-1.74,1-2.87,2.73-2.87s2.65,1.12,2.65,3.36h-3.89ZM68.45,44.5c-.02-.84-.57-1.24-1.16-1.24s-1.09.46-1.15,1.24h2.31Z"/>
    <path d="M74.42,47.88v-.69c-.37.57-.89.84-1.58.84-1.42,0-2.44-1.12-2.44-3.03,0-1.71.86-2.92,2.32-2.92.7,0,1.25.29,1.68.88v-2.8h1.47v7.71h-1.43ZM74.44,45.19c0-1.23-.42-1.84-1.25-1.84-.87,0-1.29.59-1.29,1.74,0,1.01.53,1.71,1.27,1.71s1.26-.67,1.26-1.62Z"/>
    <path d="M77.87,45.44c.05.85.53,1.4,1.26,1.4.48,0,.91-.24,1.01-.63h1.54c-.34,1.16-1.27,1.81-2.48,1.81-1.88,0-2.82-1.03-2.82-3.08,0-1.74,1-2.87,2.73-2.87s2.65,1.12,2.65,3.36h-3.89ZM80.22,44.5c-.02-.84-.57-1.24-1.16-1.24s-1.09.46-1.15,1.24h2.31Z"/>
    <path d="M85.89,47.88v-3.42c0-.87-.25-1.11-.96-1.11-.78,0-1.16.44-1.16,1.3v3.24h-1.49v-5.65h1.42v.83c.34-.63.92-.98,1.82-.98,1.08,0,1.87.65,1.87,1.88v3.91h-1.5Z"/>
    <path d="M89.41,45.44c.05.85.53,1.4,1.26,1.4.48,0,.91-.24,1.01-.63h1.54c-.34,1.16-1.27,1.81-2.48,1.81-1.88,0-2.82-1.03-2.82-3.08,0-1.74,1-2.87,2.73-2.87s2.65,1.12,2.65,3.36h-3.89ZM91.76,44.5c-.02-.84-.57-1.24-1.16-1.24s-1.09.46-1.15,1.24h2.31Z"/>
    <path d="M101.23,47.88l-2.26-3.43-.85.84v2.59h-1.57v-7.62h1.57v3.1l2.92-3.1h2.06l-3.01,3.01,3.08,4.61h-1.94Z"/>
    <path d="M106.85,47.88v-.79c-.39.64-.97.94-1.75.94-1.12,0-1.92-.84-1.92-2.08v-3.72h1.49v3.49c0,.71.32,1.06.95,1.06.76,0,1.16-.54,1.16-1.29v-3.26h1.48v5.65h-1.41Z"/>
    <path d="M112.53,47.88v-3.42c0-.87-.25-1.11-.96-1.11-.78,0-1.16.44-1.16,1.3v3.24h-1.49v-5.65h1.42v.83c.34-.63.92-.98,1.83-.98,1.08,0,1.87.65,1.87,1.88v3.91h-1.5Z"/>
    <path d="M118.59,47.88v-.69c-.37.57-.89.84-1.58.84-1.42,0-2.44-1.12-2.44-3.03,0-1.71.86-2.92,2.32-2.92.7,0,1.25.29,1.68.88v-2.8h1.47v7.71h-1.43ZM118.62,45.19c0-1.23-.42-1.84-1.25-1.84-.87,0-1.29.59-1.29,1.74,0,1.01.53,1.71,1.27,1.71s1.26-.67,1.26-1.62Z"/>
    <path d="M122.05,45.44c.05.85.53,1.4,1.26,1.4.48,0,.91-.24,1.01-.63h1.54c-.34,1.16-1.27,1.81-2.48,1.81-1.88,0-2.82-1.03-2.82-3.08,0-1.74,1-2.87,2.73-2.87s2.65,1.12,2.65,3.36h-3.89ZM124.4,44.5c-.02-.84-.57-1.24-1.16-1.24s-1.09.46-1.15,1.24h2.31Z"/>
    <path d="M130.07,47.88v-3.42c0-.87-.25-1.11-.96-1.11-.78,0-1.16.44-1.16,1.3v3.24h-1.49v-5.65h1.42v.83c.34-.63.92-.98,1.82-.98,1.08,0,1.87.65,1.87,1.88v3.91h-1.5Z"/>
  </g>
</svg>