<svg width="18" height="14" viewBox="0 0 18 14" fill="none" xmlns="http://www.w3.org/2000/svg">
<path fill-rule="evenodd" clip-rule="evenodd" d="M1.60993 0.0618897C1.1144 0.19518 0.582658 0.587175 0.332593 1.00345C0.193943 1.23427 0.0364454 1.64183 0.0364454 1.76983C0.0364454 1.84231 0.66261 2.25975 4.36582 4.65602C6.747 6.19681 8.72043 7.45752 8.75127 7.45759C8.78211 7.45767 10.7549 6.19743 13.1353 4.65708C16.8594 2.24721 17.4633 1.84446 17.4633 1.77074C17.4633 1.64194 17.3063 1.23496 17.1672 1.00345C16.9126 0.579665 16.3816 0.192227 15.8743 0.0601031C15.5623 -0.0211615 1.91231 -0.0194843 1.60993 0.0618897ZM-1.25426e-05 7.68965C-1.25426e-05 12.6227 -0.0124812 12.3419 0.228651 12.8366C0.385749 13.1588 0.841181 13.6152 1.16664 13.7764C1.65904 14.0204 1.1312 14.0045 8.74989 14.0045C16.366 14.0045 15.8392 14.0203 16.3331 13.7772C16.6559 13.6184 17.1136 13.1607 17.2725 12.8379C17.5116 12.3521 17.4998 12.6188 17.4998 7.68965C17.4998 5.22746 17.4912 3.21298 17.4808 3.21298C17.4703 3.21298 15.5566 4.4457 13.2282 5.95236C10.8997 7.45902 8.93954 8.70413 8.87224 8.71929C8.80494 8.7345 8.696 8.73475 8.63012 8.71991C8.56428 8.70504 6.60488 7.45993 4.27592 5.95294C1.94699 4.44595 0.0321433 3.21298 0.020732 3.21298C0.00932069 3.21298 -1.25426e-05 5.22746 -1.25426e-05 7.68965Z" fill="#1A8281"/>
</svg>
