<svg width="24" height="22" viewBox="0 0 24 22" fill="none" xmlns="http://www.w3.org/2000/svg">
<path fill-rule="evenodd" clip-rule="evenodd" d="M7.82791 0.52207C7.26115 0.605602 6.93363 0.676148 6.39546 0.830789C3.51659 1.65785 1.19698 3.83191 0.357258 6.49015C0.0787734 7.37168 0.0263672 7.75184 0.0263672 8.89057C0.0263672 9.8119 0.0398672 10.0075 0.132914 10.4374C0.345305 11.4186 0.734508 12.3767 1.23495 13.1503C1.3548 13.3356 1.45291 13.5103 1.45291 13.5386C1.45291 13.5668 1.14701 14.5523 0.773133 15.7286C0.365508 17.011 0.0934453 17.9422 0.0936328 18.0546C0.0941484 18.4284 0.408352 18.7338 0.792727 18.7341C0.970149 18.7343 1.30535 18.5792 3.13587 17.6502L5.27196 16.5661L5.46012 16.6376C5.56357 16.6769 5.68905 16.7255 5.73893 16.7456C5.81501 16.7764 5.80531 16.7412 5.67874 16.5278C3.8629 13.4662 3.88849 9.78166 5.74648 6.77805C6.52329 5.52223 7.72432 4.3376 9.06865 3.50126C10.3589 2.69857 12.0633 2.12299 13.6756 1.94548C13.9656 1.91351 14.2029 1.87352 14.2029 1.8566C14.2029 1.80607 13.1358 1.27418 12.656 1.08555C12.0779 0.858211 11.1018 0.612492 10.4237 0.523617C9.77768 0.438914 8.39768 0.438117 7.82791 0.52207ZM13.5467 3.33457C11.3349 3.66049 9.49802 4.57695 8.03595 6.08407C6.87682 7.27887 6.20707 8.52982 5.85012 10.1668C5.75876 10.5859 5.74512 10.7853 5.74512 11.7031C5.74512 12.6209 5.75876 12.8202 5.85012 13.2393C6.20674 14.8748 6.86993 16.1123 8.03815 17.3221C9.48752 18.8231 11.3881 19.7675 13.5724 20.0723C14.2752 20.1703 15.8272 20.1452 16.4764 20.0252C17.1264 19.9051 17.7913 19.7279 18.281 19.5443L18.7264 19.3774L20.8637 20.4621C22.6925 21.3903 23.0308 21.5468 23.2074 21.5466C23.5912 21.5463 23.9054 21.2406 23.9059 20.8671C23.9061 20.7547 23.6341 19.8235 23.2264 18.5411C22.8526 17.3648 22.5467 16.3793 22.5467 16.3511C22.5467 16.3228 22.6404 16.1548 22.755 15.9776C23.26 15.197 23.6549 14.2279 23.8667 13.2499C23.9597 12.82 23.9732 12.6244 23.9732 11.7031C23.9732 10.5643 23.9208 10.1842 23.6423 9.30265C23.1786 7.83485 22.1979 6.41524 20.9295 5.37579C19.606 4.2912 17.8051 3.53318 16.0323 3.31455C15.504 3.2494 14.0449 3.26116 13.5467 3.33457ZM11.8203 11.0321C11.7602 11.0443 11.6316 11.1337 11.5346 11.2308C11.2382 11.5271 11.2369 11.8777 11.531 12.1718C11.7168 12.3575 11.9116 12.4215 12.1477 12.3743C12.3401 12.3358 12.633 12.0408 12.6719 11.8465C12.7684 11.3639 12.3161 10.9314 11.8203 11.0321ZM14.6328 11.0321C14.5727 11.0443 14.4441 11.1337 14.3471 11.2308C14.0507 11.5271 14.0494 11.8777 14.3435 12.1718C14.5293 12.3575 14.7241 12.4215 14.9602 12.3743C15.1526 12.3358 15.4455 12.0408 15.4844 11.8465C15.5809 11.3639 15.1286 10.9314 14.6328 11.0321ZM17.4453 11.0321C17.3852 11.0443 17.2566 11.1337 17.1596 11.2308C16.8632 11.5271 16.8619 11.8777 17.156 12.1718C17.3418 12.3575 17.5366 12.4215 17.7727 12.3743C17.9651 12.3358 18.258 12.0408 18.2969 11.8465C18.3934 11.3639 17.9411 10.9314 17.4453 11.0321Z" fill="#1A8281"/>
</svg>
