<svg width="20" height="20" viewBox="0 0 20 20" fill="none" xmlns="http://www.w3.org/2000/svg">
<path fill-rule="evenodd" clip-rule="evenodd" d="M4.02241 1.06397C3.91588 1.09841 3.75741 1.16324 3.67025 1.20804C3.44067 1.32605 1.63776 3.12208 1.41453 3.45513C1.11395 3.90368 0.963545 4.56325 1.00735 5.24113C1.16614 7.69917 3.07819 11.0075 6.06112 13.9855C8.47729 16.3978 11.1389 18.1468 13.3649 18.7851C14.0108 18.9703 14.5028 19.0371 15.0804 19.0179C15.6679 18.9984 15.8833 18.9501 16.3129 18.7414C16.6012 18.6014 16.6502 18.5581 17.636 17.5708C18.7157 16.4895 18.8054 16.3764 18.9434 15.9212C19.0175 15.6772 19.0189 15.1576 18.9463 14.9224C18.8264 14.5345 18.7652 14.4628 17.2863 12.9779C15.8889 11.5748 15.8273 11.5181 15.5479 11.3791C15.2812 11.2463 15.2305 11.2336 14.9088 11.2181C14.4796 11.1974 14.1793 11.2762 13.8502 11.496C13.5813 11.6756 13.3976 11.9139 13.2347 12.2946C13.0363 12.7582 12.872 12.9638 12.5272 13.1801C12.1073 13.4436 11.5493 13.5032 11.0438 13.3387C9.7759 12.9261 8.25011 11.6741 7.32036 10.2836C6.89847 9.65255 6.58589 8.91674 6.5357 8.43656C6.48943 7.99368 6.66111 7.5776 7.04778 7.19564C7.2738 6.97237 7.36054 6.91296 7.60878 6.81154C8.17612 6.57971 8.43211 6.35647 8.63992 5.91242C8.85766 5.44714 8.85467 4.92925 8.63154 4.45344C8.53188 4.24095 8.39119 4.08899 7.07339 2.77055C5.53112 1.22758 5.49597 1.19835 5.01086 1.05432C4.7541 0.978108 4.27347 0.982791 4.02241 1.06397Z" fill="#1A8281"/>
</svg>
