<svg xmlns="http://www.w3.org/2000/svg" viewBox="0 0 1002 296.1"><defs><style>.a{fill:none;}.b{fill:#c8b274;}.c{fill:#fff;}</style></defs><rect className="a" width="1002" height="296.1"/><path className="b" d="M182.33,122.31a60,60,0,1,1-60-60A60,60,0,0,1,182.33,122.31Z"/><polygon className="c" points="146.32 91.43 112.1 125.63 98.31 111.83 84.52 125.63 112.1 153.2 160.1 105.21 146.32 91.43"/><path d="M280,134.62c-2.79,2.45-7.23,3.37-13.87,3.37H240.31v27.72h-19V84.18h44.83c6.64,0,11.08.82,13.87,3.28,3.73,3.35,7,8.61,7,23.74C287,126,283.64,131.36,280,134.62ZM258.7,123.09c4.31,0,5.6-.24,6.41-.94,1.28-1.18,2.34-3.26,2.34-11.17s-1.17-9.9-2.34-11C264.3,99.32,263,99,258.7,99H240.31v24.13Zm34.71,42.62V101.65h17.81v9.78c6.64-6.86,10-9.9,15.14-9.9h6.87v17.6H325a32.39,32.39,0,0,0-13.74,2.56v44Zm49.59-4c-4.18-4.18-5.81-10-5.81-28.08s1.63-23.87,5.81-28.18c2.69-2.81,6.19-3.85,12.7-3.85h21.78c6.53,0,9.9,1,12.69,3.85,4.19,4.31,5.82,10,5.82,28.18s-1.63,23.9-5.82,28.08c-2.79,2.92-6.16,4-12.69,4H355.7C349.19,165.71,345.81,164.68,343,161.76Zm13.4-11.31c.7.93,1.63,1.16,4.66,1.16h11.06c3,0,4-.35,4.66-1.16.93-.93,1.51-3,1.51-16.77s-.58-15.84-1.51-16.89c-.7-.81-1.63-1.05-4.66-1.05H361.06c-3,0-4,.24-4.66,1.05-.93,1-1.52,3.15-1.52,16.89S355.47,149.52,356.4,150.45Zm85.69,11.31c-1.16,3.37-2.54,4.19-6,4.19H424.39c-3.37,0-4.89-.82-6.05-4.19l-20.26-60.11h19l13.05,45.54h1.27l12.82-45.54h18.17Zm39.72-24c.11,10.12.81,12.81,1.5,13.61.83,1,2.69,1.18,5.71,1.18h10.83c3.62,0,4.55-.36,5.25-1.18s.82-2.43.93-7h16.42c-.12,9.55-1.16,14.44-4.3,17.59-2,2-4.55,3.71-11.42,3.71H483c-6.53,0-9.9-1-12.7-4-4.19-4.18-5.82-9.2-5.82-28.08s1.63-23.87,5.82-28.18c2.69-2.81,6.17-3.85,12.7-3.85h21.67c6.51,0,10,1,12.69,3.85,4.19,4.21,5.12,9.2,5.12,27.61v2.09c0,1.87-.48,2.57-2.58,2.57Zm0-10h23.64c0-8.62-.59-11-1.41-11.89-.69-.7-1.75-1-5.35-1H489c-3,0-4.88.24-5.71,1.16S481.92,118.77,481.81,127.75Zm49.71,38V101.65h17.82v8.51c8.26-7.47,10.82-8.63,16.76-8.63h7.8c5.49,0,9,1.16,11.42,3.61,2.68,2.57,3.72,6,3.72,15.38v45.19h-17.8V122.62c0-2.68-.48-4.19-1.41-5.24s-2.21-1.4-5.37-1.4h-5c-3,0-5.82.69-10.12,2.69v47Zm146.83,0H624.56V84.18h54.15V92.1h-45v27.38H672.3v7.79H633.74v30.52h44.61Zm3.84,0,22-31.69-21.65-30.61h10l17,24.34h1l16.65-24.34h9.56l-21.66,30.86,22.13,31.44h-10l-17.58-25h-.93l-17.13,25Zm71.15-62.3v8.26c8.26-6.76,11.18-8.39,17.7-8.39h7.22c7.1,0,10.59,1.17,13.26,3.83,3.62,3.75,4.9,8.63,4.9,27.39s-1.28,23.76-4.9,27.5c-2.67,2.68-6.16,3.84-13.26,3.84H771c-6.4,0-9.56-1.63-17.7-8.4v25.74h-8.62V103.41Zm0,13.16v35.87c6.4,4.07,10.14,5.7,15.49,5.7h7.67c5,0,7-.82,8.4-2.2,2.32-2.33,2.92-5.94,2.92-21.44s-.6-19.11-2.92-21.32c-1.4-1.51-3.38-2.2-8.4-2.2h-7.9C763.23,111,759.51,112.6,753.34,116.57ZM815,137.3c.11,14.21,1,17.36,2.8,19.1,1.4,1.39,3,1.74,7.45,1.74h15.49c3.85,0,5.47-.46,6.76-1.74s2-3.38,2.1-9.78h8.37c-.22,9.53-1.28,12.81-4.3,15.82-2.32,2.34-5.36,3.27-11.29,3.27H824.39c-6.41,0-10-.81-12.7-3.49-4-4-5.35-9-5.35-27.72s1.4-23.64,5.35-27.61c2.68-2.67,6.29-3.48,12.7-3.48H840c6.28,0,10.13.91,12.57,3.36,4,4.09,5.35,9.09,5.35,27.15v2c0,.93-.36,1.41-1.39,1.41Zm0-6.89h34.48c-.12-12.8-1-16-2.91-17.69-1.29-1.29-2.92-1.86-7.46-1.86H825.2c-4.43,0-6.05.46-7.57,2C815.88,114.58,815.06,117.38,815,130.41Zm54.87,35.3v-62.3h8.61v10.13c7.57-7.93,10.37-10.26,15.6-10.26h7.15v8.86h-8c-4.78,0-8,.69-14.79,5.35v48.22Zm69.75-1.85-5.47,1.39a41.32,41.32,0,0,1-8.39.92c-4.08,0-7-.7-9.2-2.9s-2.68-4.78-2.68-9.8V110.86H903.49v-7.45h10.34V87.79h8.73v15.62H939.7v7.45H922.56v40.65c0,3.25.36,4.64,1.29,5.47.7.81,2,1.28,5.47,1.28h10.25Z"/><path d="M577.24,202h3.48V233.3h-3.48Z"/><path d="M593.22,213.6v10.83c0,4.93.31,6.34,3.26,6.34,1.27,0,4-.28,4-.28l.23,2.81a39.64,39.64,0,0,1-4.63.5c-4.66,0-6.25-1.77-6.25-8.29V213.6h-3.21v-2.95h3.21v-6.93h3.36v6.93h7.2v2.95Z"/><path d="M606.61,201.23h3.58l-2.9,9.92h-2.67Z"/><path d="M630.43,214a73.7,73.7,0,0,0-7.93-.73c-2.81,0-4.94.77-4.94,3.45,0,2.13,1.09,2.71,5.89,3.53,5.67.95,7.8,2.08,7.8,6.48,0,5.3-3.36,7.07-8.79,7.07a63.45,63.45,0,0,1-8-.87l.18-2.94s5.17.77,7.48.77c3.71,0,5.71-.81,5.71-3.89,0-2.36-1.18-3-6.12-3.72-5.12-.82-7.56-1.77-7.56-6.3,0-5,4-6.61,8.15-6.61a57.93,57.93,0,0,1,8.2.86Z"/><path d="M654.64,202h7.61l8.6,31.35h-3.44l-2.26-8.06H651.74l-2.27,8.06H646Zm-2.13,20.16h11.86l-4.75-17.17h-2.36Z"/><path d="M676.35,200.78h3.4V233.3h-3.4Z"/><path d="M687.71,200.78h3.4V233.3h-3.4Z"/><path d="M716.1,202h7.61l8.61,31.35h-3.45l-2.26-8.06H713.2l-2.27,8.06h-3.44ZM714,222.11h11.87l-4.76-17.17h-2.36Z"/><path d="M755.8,221.62c0,9-2.45,12.14-10.69,12.14-2.72,0-7.57-.5-7.57-.5V200.78h3.36v11a18.7,18.7,0,0,1,6.65-1.58C753.71,210.2,755.8,213.46,755.8,221.62Zm-3.44,0c0-5.85-1.18-8.39-5.17-8.39a18.91,18.91,0,0,0-6.29,1.32v15.94s2.94.23,4.16.23C751.27,230.72,752.36,228,752.36,221.62Z"/><path d="M780.65,221.71c0,8.24-2,12-9.69,12s-9.7-3.81-9.7-12c0-7.8,2.54-11.51,9.7-11.51S780.65,213.91,780.65,221.71Zm-3.49,0c0-6.3-1.36-8.57-6.2-8.57s-6.21,2.27-6.21,8.57.86,9.1,6.21,9.1S777.16,228.14,777.16,221.71Z"/><path d="M804.59,210.65V233.3h-3.4v-1.58a15.24,15.24,0,0,1-6.7,2c-6.34,0-7.66-2.95-7.66-11.28V210.65h3.4v11.78c0,6.25.54,8.29,4.76,8.29a13.68,13.68,0,0,0,6.2-1.68V210.65Z"/><path d="M816.53,213.6v10.83c0,4.93.32,6.34,3.26,6.34,1.27,0,4-.28,4-.28l.23,2.81a39.66,39.66,0,0,1-4.62.5c-4.67,0-6.25-1.77-6.25-8.29V213.6H810v-2.95h3.22v-6.93h3.35v6.93h7.2v2.95Z"/><path d="M837,202h22.65v3.13h-9.56V233.3h-3.44V205.08H837Z"/><path d="M860.47,210.65h3.36v3.08a25.77,25.77,0,0,1,8.29-3.58v3.45a32.9,32.9,0,0,0-8.25,3.08V233.3h-3.4Z"/><path d="M894.57,210.65V233.3h-3.4v-1.58a15.29,15.29,0,0,1-6.7,2c-6.35,0-7.66-2.95-7.66-11.28V210.65h3.4v11.78c0,6.25.54,8.29,4.75,8.29a13.69,13.69,0,0,0,6.21-1.68V210.65Z"/><path d="M917,214a73.7,73.7,0,0,0-7.93-.73c-2.81,0-4.94.77-4.94,3.45,0,2.13,1.09,2.71,5.89,3.53,5.66.95,7.79,2.08,7.79,6.48,0,5.3-3.35,7.07-8.79,7.07a63.2,63.2,0,0,1-8-.87l.18-2.94s5.17.77,7.48.77c3.71,0,5.71-.81,5.71-3.89,0-2.36-1.18-3-6.12-3.72-5.12-.82-7.57-1.77-7.57-6.3,0-5,4-6.61,8.16-6.61a58.14,58.14,0,0,1,8.2.86Z"/><path d="M928.46,213.6v10.83c0,4.93.31,6.34,3.26,6.34,1.27,0,4-.28,4-.28l.23,2.81a39.64,39.64,0,0,1-4.63.5c-4.66,0-6.25-1.77-6.25-8.29V213.6h-3.21v-2.95h3.21v-6.93h3.36v6.93h7.2v2.95Z"/></svg>