<svg width="18" height="18" viewBox="0 0 18 18" fill="none" xmlns="http://www.w3.org/2000/svg">
<path fill-rule="evenodd" clip-rule="evenodd" d="M0.289172 0.166992C1.09316 1.29312 7.03418 9.99714 7.02061 10.0291C7.01052 10.0528 5.93931 11.3062 4.64007 12.8145C3.34087 14.3227 1.80479 16.1064 1.22654 16.7783L0.175195 18L0.975668 17.9984L1.77614 17.9968L4.76442 14.5177C7.56486 11.2572 7.75601 11.0427 7.80544 11.1049C7.83444 11.1414 8.91022 12.7068 10.1961 14.5836L12.534 17.9959L15.1826 17.998L17.8312 18L17.6756 17.7803C17.337 17.3018 10.7245 7.66723 10.7155 7.6391C10.7102 7.62258 12.162 5.91666 13.9417 3.8481C15.7215 1.77957 17.1897 0.0675352 17.2045 0.0435937C17.2257 0.00942188 17.0619 0 16.4461 0H15.6607L12.8332 3.28711C11.278 5.09502 9.99701 6.57376 9.98657 6.5732C9.97609 6.57264 8.95505 5.09435 7.71755 3.28806L5.46755 0.00397266L2.81873 0.00196875L0.169922 0L0.289172 0.166992ZM2.4143 1.29505C2.45002 1.34989 4.91489 4.87782 7.89178 9.13489L13.3043 16.875H14.4765C15.4596 16.875 15.6442 16.8672 15.6207 16.8268C15.6052 16.8003 13.1407 13.2724 10.144 8.98696L4.69548 1.19531H3.52242H2.34933L2.4143 1.29505Z" fill="#1A8281"/>
</svg>

