<svg width="18" height="19" viewBox="0 0 18 19" fill="none" xmlns="http://www.w3.org/2000/svg">
<path d="M9.00002 6.05514C8.15609 6.05514 7.34672 6.38983 6.74997 6.98559C6.15322 7.58135 5.81797 8.38937 5.81797 9.23189C5.81797 10.0744 6.15322 10.8824 6.74997 11.4782C7.34672 12.074 8.15609 12.4086 9.00002 12.4086C9.84396 12.4086 10.6533 12.074 11.2501 11.4782C11.8468 10.8824 12.1821 10.0744 12.1821 9.23189C12.1821 8.38937 11.8468 7.58135 11.2501 6.98559C10.6533 6.38983 9.84396 6.05514 9.00002 6.05514Z" fill="white"/>
<path fill-rule="evenodd" clip-rule="evenodd" d="M3.87937 0.514884C7.28272 0.138268 10.7173 0.138268 14.1207 0.514884C15.98 0.722106 17.479 2.18341 17.6973 4.04646C18.1009 7.49167 18.1009 10.9721 17.6973 14.4173C17.479 16.2804 15.98 17.7417 14.1217 17.9499C10.718 18.3266 7.28304 18.3266 3.87937 17.9499C2.02007 17.7417 0.521077 16.2804 0.30274 14.4183C-0.100913 10.9728 -0.100913 7.492 0.30274 4.04646C0.521077 2.18341 2.02007 0.722106 3.87937 0.514884ZM13.8955 3.36712C13.6358 3.36712 13.3868 3.4701 13.2032 3.65341C13.0195 3.83672 12.9164 4.08534 12.9164 4.34458C12.9164 4.60382 13.0195 4.85244 13.2032 5.03575C13.3868 5.21906 13.6358 5.32204 13.8955 5.32204C14.1552 5.32204 14.4042 5.21906 14.5878 5.03575C14.7714 4.85244 14.8746 4.60382 14.8746 4.34458C14.8746 4.08534 14.7714 3.83672 14.5878 3.65341C14.4042 3.4701 14.1552 3.36712 13.8955 3.36712ZM4.34933 9.23189C4.34933 8.00051 4.83931 6.81956 5.71149 5.94883C6.58366 5.07811 7.76658 4.58895 9.00002 4.58895C10.2335 4.58895 11.4164 5.07811 12.2886 5.94883C13.1607 6.81956 13.6507 8.00051 13.6507 9.23189C13.6507 10.4633 13.1607 11.6442 12.2886 12.515C11.4164 13.3857 10.2335 13.8748 9.00002 13.8748C7.76658 13.8748 6.58366 13.3857 5.71149 12.515C4.83931 11.6442 4.34933 10.4633 4.34933 9.23189Z" fill="white"/>
</svg>
