<svg width="22" height="22" viewBox="0 0 22 22" fill="none" xmlns="http://www.w3.org/2000/svg">
<path fill-rule="evenodd" clip-rule="evenodd" d="M19.1237 0.566141C18.995 0.676719 18.9917 0.692328 18.9674 1.28928C18.9428 1.8943 18.9409 1.90273 18.742 2.29508C18.6316 2.51272 18.405 2.85702 18.2384 3.06022C17.4138 4.06602 17.2578 4.40066 17.2578 5.16406C17.2578 5.72197 17.3716 6.10939 17.6638 6.54711C17.9726 7.00939 17.861 7.04197 17.5299 6.58625C16.2032 4.76014 14.4643 3.59731 12.4874 3.21406C12.0463 3.12856 10.8195 3.01897 10.7013 3.0545C10.6723 3.06322 10.1844 3.08197 9.61719 3.09608L8.58594 3.12181L8.81929 3.02623C9.14483 2.89292 9.73935 2.75769 10.2094 2.71002C10.6593 2.66445 11.8336 2.71705 12.5286 2.81398C12.7836 2.84952 13.0023 2.86948 13.0146 2.85828C13.027 2.84708 12.966 2.70083 12.8791 2.5333C12.2905 1.39789 11.2895 0.759406 10.1094 0.766625C9.49344 0.770375 9.31246 0.82325 8.37501 1.27325C7.06368 1.90269 6.53544 2.00961 5.7119 1.81217C5.08818 1.66264 4.87747 1.69147 4.74679 1.94427C4.68763 2.05859 4.69002 2.10144 4.76769 2.32194C4.97905 2.92217 5.49261 3.67381 6.02418 4.16089C6.60074 4.68917 7.21504 5.0368 7.93958 5.24469C8.45479 5.39248 9.49241 5.39178 10.0322 5.24328C10.7471 5.04659 11.656 4.54728 12.1936 4.05594C12.4324 3.83769 12.4596 3.82508 12.6266 3.85602C12.9176 3.90997 13.8035 4.28314 14.2819 4.55333C15.8843 5.45844 17.1036 6.75519 17.8972 8.39844C19.3475 11.4011 18.9598 14.93 16.888 17.5859C16.5684 17.9956 15.8616 18.6996 15.4279 19.0402C12.7652 21.1311 9.08699 21.4868 6.06932 19.9451C4.87227 19.3335 3.72018 18.3387 2.92555 17.2306C2.52093 16.6664 1.97197 15.5776 1.75321 14.9053C0.936974 12.3974 1.28155 9.68773 2.69971 7.46286C2.83049 7.25764 2.93751 7.04145 2.93751 6.98239C2.93751 6.75598 2.63507 6.60617 2.46041 6.74609C2.34824 6.836 2.03282 7.32669 1.77243 7.81639C0.383802 10.4282 0.335615 13.6117 1.64436 16.2734C2.15511 17.3122 2.71986 18.092 3.53193 18.8795C5.13397 20.4333 7.11107 21.3193 9.38769 21.5037C11.6483 21.6867 14.0557 20.9371 15.8684 19.4855C16.9684 18.6047 17.8418 17.508 18.4533 16.24C19.662 13.7334 19.7004 10.8278 18.5581 8.31739L18.3816 7.92969L18.4142 7.44847C18.4969 6.22376 18.7173 5.19678 19.0352 4.55469C19.2219 4.17767 19.4844 3.7602 19.4844 3.84031C19.4844 3.85705 19.3809 4.28858 19.2544 4.79928C18.9861 5.8828 18.7555 7.34375 18.8528 7.34375C18.873 7.34375 19.094 7.20762 19.3439 7.04122C20.2856 6.41431 20.8843 5.6563 21.1791 4.71758C21.272 4.42161 21.2886 4.27259 21.2857 3.75781C21.2827 3.19677 21.2702 3.11234 21.128 2.69286C20.9292 2.1065 20.6391 1.6145 20.2445 1.1945C19.9169 0.845938 19.426 0.453125 19.3178 0.453125C19.2834 0.453125 19.1961 0.503984 19.1237 0.566141Z" fill="white"/>
</svg>
