<svg width="20" height="20" viewBox="0 0 20 20" fill="none" xmlns="http://www.w3.org/2000/svg">
<g clip-path="url(#clip0_1569_825)">
<path fill-rule="evenodd" clip-rule="evenodd" d="M5.83983 4.62398C5.52014 4.70812 5.36436 4.79031 5.18565 4.96902C4.59518 5.55945 4.30386 6.17558 4.21854 7.01414C4.113 8.05187 4.47136 9.0841 5.39772 10.4106C5.96136 11.2177 6.45413 11.8076 7.14757 12.5054C8.53339 13.8999 9.55612 14.536 11.4829 15.202C12.1939 15.4478 12.6323 15.5481 13.1083 15.5739C13.6814 15.605 14.0204 15.5319 14.5898 15.2548C15.5756 14.7751 15.9483 14.2233 16.0043 13.1607L16.0261 12.7468L15.8939 12.6471C15.7558 12.5429 13.7889 11.585 13.4671 11.4653C13.2163 11.3719 12.9926 11.4039 12.8419 11.5545C12.7789 11.6175 12.5576 11.8952 12.35 12.1714C11.8925 12.7804 11.7835 12.865 11.4844 12.8434C10.9027 12.8015 9.59718 12.0251 8.73347 11.2075C8.17686 10.6807 7.27347 9.48257 7.20796 9.18449C7.1719 9.02023 7.25897 8.87398 7.66417 8.41847C8.05245 7.98191 8.22554 7.68101 8.19014 7.50402C8.16249 7.36566 7.21284 5.07843 7.09639 4.86968C7.05026 4.78703 6.95964 4.69191 6.89495 4.65835C6.73722 4.57652 6.09913 4.55574 5.83983 4.62398Z" fill="#FBFBFB"/>
<path fill-rule="evenodd" clip-rule="evenodd" d="M8.90634 0.0417339C7.28298 0.241968 5.77591 0.7915 4.47223 1.65845C3.85309 2.07017 3.44555 2.4072 2.89071 2.96627C1.43579 4.43224 0.490984 6.26474 0.13032 8.32037C0.0072344 9.02177 -0.0371797 10.2956 0.0373516 10.9856C0.212156 12.6038 0.742391 14.111 1.59802 15.4219L1.88614 15.8633L1.27013 17.6988C0.931297 18.7083 0.664148 19.5443 0.676414 19.5566C0.68868 19.5688 1.55403 19.3055 2.59946 18.9713L4.50016 18.3638L4.83802 18.5719C6.0568 19.3227 7.4979 19.8029 9.0145 19.9637C9.70727 20.0371 10.9822 19.9922 11.6798 19.8698C14.7927 19.3236 17.4286 17.3966 18.8856 14.6018C19.1862 14.0252 19.4431 13.3796 19.6315 12.7273C19.7749 12.2308 19.961 11.2415 19.961 10.9758C19.961 10.8929 19.9786 10.8141 20.0001 10.8008C20.0241 10.786 20.0391 10.4611 20.0391 9.95638C20.0391 9.41947 20.0257 9.14439 20.0001 9.16021C19.9765 9.17474 19.961 9.12259 19.961 9.02888C19.961 8.75916 19.776 7.7731 19.6315 7.27283C19.1525 5.61412 18.3089 4.17384 17.1095 2.96689C15.8634 1.71294 14.4211 0.857828 12.7273 0.368609C11.8425 0.113062 11.2422 0.0311089 10.1563 0.0175542C9.62997 0.0109527 9.06747 0.0218511 8.90634 0.0417339ZM5.83993 4.62357C5.52024 4.70771 5.36446 4.7899 5.18575 4.96861C4.59528 5.55904 4.30395 6.17517 4.21864 7.01373C4.11309 8.05146 4.47145 9.08369 5.39782 10.4102C5.96145 11.2173 6.45423 11.8072 7.14766 12.505C8.53348 13.8995 9.55622 14.5356 11.483 15.2016C12.194 15.4474 12.6324 15.5477 13.1084 15.5735C13.6815 15.6045 14.0205 15.5315 14.5899 15.2544C15.5757 14.7747 15.9484 14.2229 16.0044 13.1603L16.0262 12.7464L15.894 12.6467C15.7559 12.5425 13.789 11.5846 13.4672 11.4649C13.2164 11.3715 12.9927 11.4035 12.842 11.5541C12.779 11.6171 12.5577 11.8947 12.3501 12.171C11.8926 12.78 11.7836 12.8646 11.4845 12.843C10.9028 12.8011 9.59727 12.0247 8.73356 11.2071C8.17696 10.6802 7.27356 9.48216 7.20805 9.18408C7.172 9.01982 7.25907 8.87357 7.66427 8.41806C8.05255 7.9815 8.22563 7.6806 8.19024 7.50361C8.16259 7.36525 7.21294 5.07802 7.09649 4.86927C7.05036 4.78662 6.95973 4.6915 6.89505 4.65794C6.73731 4.57611 6.09923 4.55533 5.83993 4.62357ZM0.0166875 10.0001C0.0166875 10.462 0.0223125 10.651 0.0292266 10.42C0.0361406 10.189 0.0361406 9.81107 0.0292266 9.58013C0.0223125 9.3492 0.0166875 9.53814 0.0166875 10.0001Z" fill="#1A8281"/>
</g>
<defs>
<clipPath id="clip0_1569_825">
<rect width="20" height="20" fill="white"/>
</clipPath>
</defs>
</svg>
